<mxfile host="app.diagrams.net" modified="2024-07-02T23:24:29.898Z" agent="Mozilla/5.0 (X11; Linux x86_64) AppleWebKit/537.36 (KHTML, like Gecko) Chrome/126.0.0.0 Safari/537.36" etag="FSWfipxjulFJN8GhO6HN" version="24.6.4" type="github">
  <diagram id="C5RBs43oDa-KdzZeNtuy" name="Page-1">
    <mxGraphModel dx="3953" dy="2503" grid="1" gridSize="10" guides="1" tooltips="1" connect="1" arrows="1" fold="1" page="1" pageScale="1" pageWidth="827" pageHeight="1169" math="0" shadow="0">
      <root>
        <mxCell id="WIyWlLk6GJQsqaUBKTNV-0" />
        <mxCell id="WIyWlLk6GJQsqaUBKTNV-1" parent="WIyWlLk6GJQsqaUBKTNV-0" />
        <mxCell id="mfR3fk1l9YsUzS0LlTWS-6" value="Projects" style="html=1;overflow=block;blockSpacing=1;swimlane;childLayout=stackLayout;horizontal=1;horizontalStack=0;resizeParent=1;resizeParentMax=0;resizeLast=0;collapsible=0;marginBottom=0;swimlaneFillColor=#ffffff;startSize=NaN;whiteSpace=wrap;fontSize=13.3;fontStyle=3;align=center;spacingLeft=8.4;spacingRight=8.4;spacingTop=2.4;spacing=0;strokeColor=#3a414a;strokeOpacity=100;fillOpacity=100;rounded=1;absoluteArcSize=1;arcSize=12;strokeWidth=0.8;fillColor=#d9d9d9;" vertex="1" parent="WIyWlLk6GJQsqaUBKTNV-1">
          <mxGeometry x="109" y="960" width="150" height="NaN" as="geometry" />
        </mxCell>
        <mxCell id="mfR3fk1l9YsUzS0LlTWS-7" value="Project_ID (PK)" style="part=1;resizeHeight=0;strokeColor=none;verticalAlign=top;overflow=hidden;rotatable=0;points=[[0,0.5],[1,0.5]];portConstraint=eastwest;html=1;whiteSpace=wrap;#ffffffwhiteSpace=wrap;fontSize=13.3;align=center;spacingLeft=8.4;spacingRight=8.4;spacingTop=2.4;fillColor=none;strokeOpacity=100;fillOpacity=100;" vertex="1" parent="mfR3fk1l9YsUzS0LlTWS-6">
          <mxGeometry y="NaN" width="150" as="geometry" />
        </mxCell>
        <mxCell id="mfR3fk1l9YsUzS0LlTWS-8" value="Project_Name String" style="part=1;resizeHeight=0;strokeColor=none;verticalAlign=top;overflow=hidden;rotatable=0;points=[[0,0.5],[1,0.5]];portConstraint=eastwest;html=1;whiteSpace=wrap;#ffffffwhiteSpace=wrap;fontSize=13.3;align=center;spacingLeft=8.4;spacingRight=8.4;spacingTop=2.4;fillColor=none;strokeOpacity=100;fillOpacity=100;" vertex="1" parent="mfR3fk1l9YsUzS0LlTWS-6">
          <mxGeometry y="NaN" width="150" as="geometry" />
        </mxCell>
        <mxCell id="mfR3fk1l9YsUzS0LlTWS-9" value="Requirements text" style="part=1;resizeHeight=0;strokeColor=none;verticalAlign=top;overflow=hidden;rotatable=0;points=[[0,0.5],[1,0.5]];portConstraint=eastwest;html=1;whiteSpace=wrap;#ffffffwhiteSpace=wrap;fontSize=13.3;align=center;spacingLeft=8.4;spacingRight=8.4;spacingTop=2.4;fillColor=none;strokeOpacity=100;fillOpacity=100;" vertex="1" parent="mfR3fk1l9YsUzS0LlTWS-6">
          <mxGeometry y="NaN" width="150" as="geometry" />
        </mxCell>
        <mxCell id="mfR3fk1l9YsUzS0LlTWS-10" value="deadline date" style="part=1;resizeHeight=0;strokeColor=none;verticalAlign=top;overflow=hidden;rotatable=0;points=[[0,0.5],[1,0.5]];portConstraint=eastwest;html=1;whiteSpace=wrap;#ffffffwhiteSpace=wrap;fontSize=13.3;align=center;spacingLeft=8.4;spacingRight=8.4;spacingTop=2.4;fillColor=none;strokeOpacity=100;fillOpacity=100;" vertex="1" parent="mfR3fk1l9YsUzS0LlTWS-6">
          <mxGeometry y="NaN" width="150" as="geometry" />
        </mxCell>
        <mxCell id="mfR3fk1l9YsUzS0LlTWS-11" value="Client_ID (FK)" style="part=1;resizeHeight=0;strokeColor=none;verticalAlign=top;overflow=hidden;rotatable=0;points=[[0,0.5],[1,0.5]];portConstraint=eastwest;html=1;whiteSpace=wrap;#ffffffwhiteSpace=wrap;fontSize=13.3;align=center;spacingLeft=8.4;spacingRight=8.4;spacingTop=2.4;fillColor=none;strokeOpacity=100;fillOpacity=100;" vertex="1" parent="mfR3fk1l9YsUzS0LlTWS-6">
          <mxGeometry y="NaN" width="150" as="geometry" />
        </mxCell>
        <mxCell id="mfR3fk1l9YsUzS0LlTWS-12" value="Clients" style="html=1;overflow=block;blockSpacing=1;swimlane;childLayout=stackLayout;horizontal=1;horizontalStack=0;resizeParent=1;resizeParentMax=0;resizeLast=0;collapsible=0;marginBottom=0;swimlaneFillColor=#ffffff;startSize=NaN;whiteSpace=wrap;fontSize=13.3;fontStyle=3;align=center;spacingLeft=8.4;spacingRight=8.4;spacingTop=2.4;spacing=0;strokeColor=#3a414a;strokeOpacity=100;fillOpacity=100;rounded=1;absoluteArcSize=1;arcSize=12;strokeWidth=0.8;fillColor=#d9d9d9;" vertex="1" parent="WIyWlLk6GJQsqaUBKTNV-1">
          <mxGeometry x="375" y="1170" width="150" height="NaN" as="geometry" />
        </mxCell>
        <mxCell id="mfR3fk1l9YsUzS0LlTWS-13" value="Client_ID (PK)" style="part=1;resizeHeight=0;strokeColor=none;verticalAlign=top;overflow=hidden;rotatable=0;points=[[0,0.5],[1,0.5]];portConstraint=eastwest;html=1;whiteSpace=wrap;#ffffffwhiteSpace=wrap;fontSize=13.3;align=center;spacingLeft=8.4;spacingRight=8.4;spacingTop=2.4;fillColor=none;strokeOpacity=100;fillOpacity=100;" vertex="1" parent="mfR3fk1l9YsUzS0LlTWS-12">
          <mxGeometry y="NaN" width="150" as="geometry" />
        </mxCell>
        <mxCell id="mfR3fk1l9YsUzS0LlTWS-14" value="Client_Name String" style="part=1;resizeHeight=0;strokeColor=none;verticalAlign=top;overflow=hidden;rotatable=0;points=[[0,0.5],[1,0.5]];portConstraint=eastwest;html=1;whiteSpace=wrap;#ffffffwhiteSpace=wrap;fontSize=13.3;align=center;spacingLeft=8.4;spacingRight=8.4;spacingTop=2.4;fillColor=none;strokeOpacity=100;fillOpacity=100;" vertex="1" parent="mfR3fk1l9YsUzS0LlTWS-12">
          <mxGeometry y="NaN" width="150" as="geometry" />
        </mxCell>
        <mxCell id="mfR3fk1l9YsUzS0LlTWS-15" value="Contact_Name String" style="part=1;resizeHeight=0;strokeColor=none;verticalAlign=top;overflow=hidden;rotatable=0;points=[[0,0.5],[1,0.5]];portConstraint=eastwest;html=1;whiteSpace=wrap;#ffffffwhiteSpace=wrap;fontSize=13.3;align=center;spacingLeft=8.4;spacingRight=8.4;spacingTop=2.4;fillColor=none;strokeOpacity=100;fillOpacity=100;" vertex="1" parent="mfR3fk1l9YsUzS0LlTWS-12">
          <mxGeometry y="NaN" width="150" as="geometry" />
        </mxCell>
        <mxCell id="mfR3fk1l9YsUzS0LlTWS-16" value="" style="html=1;jettySize=18;whiteSpace=wrap;fontSize=13;strokeColor=#3a414a;strokeOpacity=100;strokeWidth=0.8;rounded=1;arcSize=12;edgeStyle=orthogonalEdgeStyle;startArrow=ERone;startSize=16;endArrow=ERmany;endSize=10;exitX=-0.002;exitY=0.346;exitPerimeter=0;entryX=1.002;entryY=0.919;entryPerimeter=0;lucidId=HXJQTWXBSOZ1;" edge="1" parent="WIyWlLk6GJQsqaUBKTNV-1" source="mfR3fk1l9YsUzS0LlTWS-12" target="mfR3fk1l9YsUzS0LlTWS-6">
          <mxGeometry width="100" height="100" relative="1" as="geometry">
            <Array as="points" />
          </mxGeometry>
        </mxCell>
        <mxCell id="mfR3fk1l9YsUzS0LlTWS-17" value="Archived Projects" style="html=1;overflow=block;blockSpacing=1;swimlane;childLayout=stackLayout;horizontal=1;horizontalStack=0;resizeParent=1;resizeParentMax=0;resizeLast=0;collapsible=0;marginBottom=0;swimlaneFillColor=#ffffff;startSize=NaN;whiteSpace=wrap;fontSize=13.3;fontStyle=3;align=center;spacingLeft=8.4;spacingRight=8.4;spacingTop=2.4;spacing=0;strokeColor=#3a414a;strokeOpacity=100;fillOpacity=100;rounded=1;absoluteArcSize=1;arcSize=12;strokeWidth=0.8;fillColor=#d9d9d9;" vertex="1" parent="WIyWlLk6GJQsqaUBKTNV-1">
          <mxGeometry x="675" y="960" width="150" height="NaN" as="geometry" />
        </mxCell>
        <mxCell id="mfR3fk1l9YsUzS0LlTWS-18" value="Project_ID (PK)" style="part=1;resizeHeight=0;strokeColor=none;verticalAlign=top;overflow=hidden;rotatable=0;points=[[0,0.5],[1,0.5]];portConstraint=eastwest;html=1;whiteSpace=wrap;#ffffffwhiteSpace=wrap;fontSize=13.3;align=center;spacingLeft=8.4;spacingRight=8.4;spacingTop=2.4;fillColor=none;strokeOpacity=100;fillOpacity=100;" vertex="1" parent="mfR3fk1l9YsUzS0LlTWS-17">
          <mxGeometry y="NaN" width="150" as="geometry" />
        </mxCell>
        <mxCell id="mfR3fk1l9YsUzS0LlTWS-19" value="Project_Name String" style="part=1;resizeHeight=0;strokeColor=none;verticalAlign=top;overflow=hidden;rotatable=0;points=[[0,0.5],[1,0.5]];portConstraint=eastwest;html=1;whiteSpace=wrap;#ffffffwhiteSpace=wrap;fontSize=13.3;align=center;spacingLeft=8.4;spacingRight=8.4;spacingTop=2.4;fillColor=none;strokeOpacity=100;fillOpacity=100;" vertex="1" parent="mfR3fk1l9YsUzS0LlTWS-17">
          <mxGeometry y="NaN" width="150" as="geometry" />
        </mxCell>
        <mxCell id="mfR3fk1l9YsUzS0LlTWS-20" value="Requirements text" style="part=1;resizeHeight=0;strokeColor=none;verticalAlign=top;overflow=hidden;rotatable=0;points=[[0,0.5],[1,0.5]];portConstraint=eastwest;html=1;whiteSpace=wrap;#ffffffwhiteSpace=wrap;fontSize=13.3;align=center;spacingLeft=8.4;spacingRight=8.4;spacingTop=2.4;fillColor=none;strokeOpacity=100;fillOpacity=100;" vertex="1" parent="mfR3fk1l9YsUzS0LlTWS-17">
          <mxGeometry y="NaN" width="150" as="geometry" />
        </mxCell>
        <mxCell id="mfR3fk1l9YsUzS0LlTWS-21" value="deadline date" style="part=1;resizeHeight=0;strokeColor=none;verticalAlign=top;overflow=hidden;rotatable=0;points=[[0,0.5],[1,0.5]];portConstraint=eastwest;html=1;whiteSpace=wrap;#ffffffwhiteSpace=wrap;fontSize=13.3;align=center;spacingLeft=8.4;spacingRight=8.4;spacingTop=2.4;fillColor=none;strokeOpacity=100;fillOpacity=100;" vertex="1" parent="mfR3fk1l9YsUzS0LlTWS-17">
          <mxGeometry y="NaN" width="150" as="geometry" />
        </mxCell>
        <mxCell id="mfR3fk1l9YsUzS0LlTWS-22" value="Client_ID (FK)" style="part=1;resizeHeight=0;strokeColor=none;verticalAlign=top;overflow=hidden;rotatable=0;points=[[0,0.5],[1,0.5]];portConstraint=eastwest;html=1;whiteSpace=wrap;#ffffffwhiteSpace=wrap;fontSize=13.3;align=center;spacingLeft=8.4;spacingRight=8.4;spacingTop=2.4;fillColor=none;strokeOpacity=100;fillOpacity=100;" vertex="1" parent="mfR3fk1l9YsUzS0LlTWS-17">
          <mxGeometry y="NaN" width="150" as="geometry" />
        </mxCell>
        <mxCell id="mfR3fk1l9YsUzS0LlTWS-23" value="Employees" style="html=1;overflow=block;blockSpacing=1;swimlane;childLayout=stackLayout;horizontal=1;horizontalStack=0;resizeParent=1;resizeParentMax=0;resizeLast=0;collapsible=0;marginBottom=0;swimlaneFillColor=#ffffff;startSize=NaN;whiteSpace=wrap;fontSize=13.3;fontStyle=3;align=center;spacingLeft=8.4;spacingRight=8.4;spacingTop=2.4;spacing=0;strokeColor=#3a414a;strokeOpacity=100;fillOpacity=100;rounded=1;absoluteArcSize=1;arcSize=12;strokeWidth=0.8;fillColor=#d9d9d9;" vertex="1" parent="WIyWlLk6GJQsqaUBKTNV-1">
          <mxGeometry x="120" y="1335" width="150" height="NaN" as="geometry" />
        </mxCell>
        <mxCell id="mfR3fk1l9YsUzS0LlTWS-24" value="employee_id (PK)" style="part=1;resizeHeight=0;strokeColor=none;verticalAlign=top;overflow=hidden;rotatable=0;points=[[0,0.5],[1,0.5]];portConstraint=eastwest;html=1;whiteSpace=wrap;#ffffffwhiteSpace=wrap;fontSize=13.3;align=center;spacingLeft=8.4;spacingRight=8.4;spacingTop=2.4;fillColor=none;strokeOpacity=100;fillOpacity=100;" vertex="1" parent="mfR3fk1l9YsUzS0LlTWS-23">
          <mxGeometry y="NaN" width="150" as="geometry" />
        </mxCell>
        <mxCell id="mfR3fk1l9YsUzS0LlTWS-25" value="employee_name String" style="part=1;resizeHeight=0;strokeColor=none;verticalAlign=top;overflow=hidden;rotatable=0;points=[[0,0.5],[1,0.5]];portConstraint=eastwest;html=1;whiteSpace=wrap;#ffffffwhiteSpace=wrap;fontSize=13.3;align=center;spacingLeft=8.4;spacingRight=8.4;spacingTop=2.4;fillColor=none;strokeOpacity=100;fillOpacity=100;" vertex="1" parent="mfR3fk1l9YsUzS0LlTWS-23">
          <mxGeometry y="NaN" width="150" as="geometry" />
        </mxCell>
        <mxCell id="mfR3fk1l9YsUzS0LlTWS-26" value="Team_members" style="html=1;overflow=block;blockSpacing=1;swimlane;childLayout=stackLayout;horizontal=1;horizontalStack=0;resizeParent=1;resizeParentMax=0;resizeLast=0;collapsible=0;marginBottom=0;swimlaneFillColor=#ffffff;startSize=NaN;whiteSpace=wrap;fontSize=13.3;fontStyle=3;align=center;spacingLeft=8.4;spacingRight=8.4;spacingTop=2.4;spacing=0;strokeColor=#3a414a;strokeOpacity=100;fillOpacity=100;rounded=1;absoluteArcSize=1;arcSize=12;strokeWidth=0.8;fillColor=#d9d9d9;" vertex="1" parent="WIyWlLk6GJQsqaUBKTNV-1">
          <mxGeometry x="-390" y="1155" width="150" height="NaN" as="geometry" />
        </mxCell>
        <mxCell id="mfR3fk1l9YsUzS0LlTWS-27" value="team_id (PK)" style="part=1;resizeHeight=0;strokeColor=none;verticalAlign=top;overflow=hidden;rotatable=0;points=[[0,0.5],[1,0.5]];portConstraint=eastwest;html=1;whiteSpace=wrap;#ffffffwhiteSpace=wrap;fontSize=13.3;align=center;spacingLeft=8.4;spacingRight=8.4;spacingTop=2.4;fillColor=none;strokeOpacity=100;fillOpacity=100;" vertex="1" parent="mfR3fk1l9YsUzS0LlTWS-26">
          <mxGeometry y="NaN" width="150" as="geometry" />
        </mxCell>
        <mxCell id="mfR3fk1l9YsUzS0LlTWS-28" value="Project _ID (FK)" style="part=1;resizeHeight=0;strokeColor=none;verticalAlign=top;overflow=hidden;rotatable=0;points=[[0,0.5],[1,0.5]];portConstraint=eastwest;html=1;whiteSpace=wrap;#ffffffwhiteSpace=wrap;fontSize=13.3;align=center;spacingLeft=8.4;spacingRight=8.4;spacingTop=2.4;fillColor=none;strokeOpacity=100;fillOpacity=100;" vertex="1" parent="mfR3fk1l9YsUzS0LlTWS-26">
          <mxGeometry y="NaN" width="150" as="geometry" />
        </mxCell>
        <mxCell id="mfR3fk1l9YsUzS0LlTWS-29" value="employee_Id(FK)" style="part=1;resizeHeight=0;strokeColor=none;verticalAlign=top;overflow=hidden;rotatable=0;points=[[0,0.5],[1,0.5]];portConstraint=eastwest;html=1;whiteSpace=wrap;#ffffffwhiteSpace=wrap;fontSize=13.3;align=center;spacingLeft=8.4;spacingRight=8.4;spacingTop=2.4;fillColor=none;strokeOpacity=100;fillOpacity=100;" vertex="1" parent="mfR3fk1l9YsUzS0LlTWS-26">
          <mxGeometry y="NaN" width="150" as="geometry" />
        </mxCell>
        <mxCell id="mfR3fk1l9YsUzS0LlTWS-30" value="" style="html=1;jettySize=18;whiteSpace=wrap;fontSize=13;strokeColor=#3a414a;strokeOpacity=100;strokeWidth=0.8;rounded=1;arcSize=12;edgeStyle=orthogonalEdgeStyle;startArrow=ERone;startSize=16;endArrow=ERmany;endSize=10;exitX=1.002;exitY=0.638;exitPerimeter=0;entryX=-0.002;entryY=0.267;entryPerimeter=0;lucidId=n3JQQGuNli3l;" edge="1" parent="WIyWlLk6GJQsqaUBKTNV-1" source="mfR3fk1l9YsUzS0LlTWS-26" target="mfR3fk1l9YsUzS0LlTWS-6">
          <mxGeometry width="100" height="100" relative="1" as="geometry">
            <Array as="points" />
          </mxGeometry>
        </mxCell>
        <mxCell id="mfR3fk1l9YsUzS0LlTWS-31" value="" style="html=1;jettySize=18;whiteSpace=wrap;fontSize=13;strokeColor=#3a414a;strokeOpacity=100;strokeWidth=0.8;rounded=1;arcSize=12;edgeStyle=orthogonalEdgeStyle;startArrow=ERone;startSize=16;endArrow=ERmany;endSize=10;exitX=1.002;exitY=0.879;exitPerimeter=0;entryX=-0.002;entryY=0.439;entryPerimeter=0;lucidId=s3JQXHloKjPH;" edge="1" parent="WIyWlLk6GJQsqaUBKTNV-1" source="mfR3fk1l9YsUzS0LlTWS-26" target="mfR3fk1l9YsUzS0LlTWS-23">
          <mxGeometry width="100" height="100" relative="1" as="geometry">
            <Array as="points" />
          </mxGeometry>
        </mxCell>
        <mxCell id="mfR3fk1l9YsUzS0LlTWS-32" value="" style="html=1;jettySize=18;whiteSpace=wrap;fontSize=13;strokeColor=#3a414a;strokeOpacity=100;strokeWidth=0.8;rounded=1;arcSize=12;edgeStyle=orthogonalEdgeStyle;startArrow=ERone;startSize=16;endArrow=ERmany;endSize=10;exitX=-0.002;exitY=0.919;exitPerimeter=0;entryX=1.002;entryY=0.346;entryPerimeter=0;lucidId=-3JQY85L~Fqe;" edge="1" parent="WIyWlLk6GJQsqaUBKTNV-1" source="mfR3fk1l9YsUzS0LlTWS-17" target="mfR3fk1l9YsUzS0LlTWS-12">
          <mxGeometry width="100" height="100" relative="1" as="geometry">
            <Array as="points" />
          </mxGeometry>
        </mxCell>
        <mxCell id="mfR3fk1l9YsUzS0LlTWS-33" value="Audit Project" style="html=1;overflow=block;blockSpacing=1;swimlane;childLayout=stackLayout;horizontal=1;horizontalStack=0;resizeParent=1;resizeParentMax=0;resizeLast=0;collapsible=0;marginBottom=0;swimlaneFillColor=#ffffff;startSize=NaN;whiteSpace=wrap;fontSize=13.3;fontStyle=3;align=center;spacingLeft=8.4;spacingRight=8.4;spacingTop=2.4;spacing=0;strokeColor=#3a414a;strokeOpacity=100;fillOpacity=100;rounded=1;absoluteArcSize=1;arcSize=12;strokeWidth=0.8;fillColor=#d9d9d9;" vertex="1" parent="WIyWlLk6GJQsqaUBKTNV-1">
          <mxGeometry x="405" y="1470" width="240" height="NaN" as="geometry" />
        </mxCell>
        <mxCell id="mfR3fk1l9YsUzS0LlTWS-34" value="Audit_Id (PK)" style="part=1;resizeHeight=0;strokeColor=none;verticalAlign=top;overflow=hidden;rotatable=0;points=[[0,0.5],[1,0.5]];portConstraint=eastwest;html=1;whiteSpace=wrap;#ffffffwhiteSpace=wrap;fontSize=13.3;align=center;spacingLeft=8.4;spacingRight=8.4;spacingTop=2.4;fillColor=none;strokeOpacity=100;fillOpacity=100;" vertex="1" parent="mfR3fk1l9YsUzS0LlTWS-33">
          <mxGeometry y="NaN" width="240" as="geometry" />
        </mxCell>
        <mxCell id="mfR3fk1l9YsUzS0LlTWS-35" value="Project_ID INT" style="part=1;resizeHeight=0;strokeColor=none;verticalAlign=top;overflow=hidden;rotatable=0;points=[[0,0.5],[1,0.5]];portConstraint=eastwest;html=1;whiteSpace=wrap;#ffffffwhiteSpace=wrap;fontSize=13.3;align=center;spacingLeft=8.4;spacingRight=8.4;spacingTop=2.4;fillColor=none;strokeOpacity=100;fillOpacity=100;" vertex="1" parent="mfR3fk1l9YsUzS0LlTWS-33">
          <mxGeometry y="NaN" width="240" as="geometry" />
        </mxCell>
        <mxCell id="mfR3fk1l9YsUzS0LlTWS-36" value="Old Project Name" style="part=1;resizeHeight=0;strokeColor=none;verticalAlign=top;overflow=hidden;rotatable=0;points=[[0,0.5],[1,0.5]];portConstraint=eastwest;html=1;whiteSpace=wrap;#ffffffwhiteSpace=wrap;fontSize=13.3;align=center;spacingLeft=8.4;spacingRight=8.4;spacingTop=2.4;fillColor=none;strokeOpacity=100;fillOpacity=100;" vertex="1" parent="mfR3fk1l9YsUzS0LlTWS-33">
          <mxGeometry y="NaN" width="240" as="geometry" />
        </mxCell>
        <mxCell id="mfR3fk1l9YsUzS0LlTWS-37" value="new project Name" style="part=1;resizeHeight=0;strokeColor=none;verticalAlign=top;overflow=hidden;rotatable=0;points=[[0,0.5],[1,0.5]];portConstraint=eastwest;html=1;whiteSpace=wrap;#ffffffwhiteSpace=wrap;fontSize=13.3;align=center;spacingLeft=8.4;spacingRight=8.4;spacingTop=2.4;fillColor=none;strokeOpacity=100;fillOpacity=100;" vertex="1" parent="mfR3fk1l9YsUzS0LlTWS-33">
          <mxGeometry y="NaN" width="240" as="geometry" />
        </mxCell>
        <mxCell id="mfR3fk1l9YsUzS0LlTWS-38" value="old requirements" style="part=1;resizeHeight=0;strokeColor=none;verticalAlign=top;overflow=hidden;rotatable=0;points=[[0,0.5],[1,0.5]];portConstraint=eastwest;html=1;whiteSpace=wrap;#ffffffwhiteSpace=wrap;fontSize=13.3;align=center;spacingLeft=8.4;spacingRight=8.4;spacingTop=2.4;fillColor=none;strokeOpacity=100;fillOpacity=100;" vertex="1" parent="mfR3fk1l9YsUzS0LlTWS-33">
          <mxGeometry y="NaN" width="240" as="geometry" />
        </mxCell>
        <mxCell id="mfR3fk1l9YsUzS0LlTWS-39" value="new requirements" style="part=1;resizeHeight=0;strokeColor=none;verticalAlign=top;overflow=hidden;rotatable=0;points=[[0,0.5],[1,0.5]];portConstraint=eastwest;html=1;whiteSpace=wrap;#ffffffwhiteSpace=wrap;fontSize=13.3;align=center;spacingLeft=8.4;spacingRight=8.4;spacingTop=2.4;fillColor=none;strokeOpacity=100;fillOpacity=100;" vertex="1" parent="mfR3fk1l9YsUzS0LlTWS-33">
          <mxGeometry y="NaN" width="240" as="geometry" />
        </mxCell>
        <mxCell id="mfR3fk1l9YsUzS0LlTWS-40" value="old deadline" style="part=1;resizeHeight=0;strokeColor=none;verticalAlign=top;overflow=hidden;rotatable=0;points=[[0,0.5],[1,0.5]];portConstraint=eastwest;html=1;whiteSpace=wrap;#ffffffwhiteSpace=wrap;fontSize=13.3;align=center;spacingLeft=8.4;spacingRight=8.4;spacingTop=2.4;fillColor=none;strokeOpacity=100;fillOpacity=100;" vertex="1" parent="mfR3fk1l9YsUzS0LlTWS-33">
          <mxGeometry y="NaN" width="240" as="geometry" />
        </mxCell>
        <mxCell id="mfR3fk1l9YsUzS0LlTWS-41" value="new deadline" style="part=1;resizeHeight=0;strokeColor=none;verticalAlign=top;overflow=hidden;rotatable=0;points=[[0,0.5],[1,0.5]];portConstraint=eastwest;html=1;whiteSpace=wrap;#ffffffwhiteSpace=wrap;fontSize=13.3;align=center;spacingLeft=8.4;spacingRight=8.4;spacingTop=2.4;fillColor=none;strokeOpacity=100;fillOpacity=100;" vertex="1" parent="mfR3fk1l9YsUzS0LlTWS-33">
          <mxGeometry y="NaN" width="240" as="geometry" />
        </mxCell>
        <mxCell id="mfR3fk1l9YsUzS0LlTWS-42" value="old client ID" style="part=1;resizeHeight=0;strokeColor=none;verticalAlign=top;overflow=hidden;rotatable=0;points=[[0,0.5],[1,0.5]];portConstraint=eastwest;html=1;whiteSpace=wrap;#ffffffwhiteSpace=wrap;fontSize=13.3;align=center;spacingLeft=8.4;spacingRight=8.4;spacingTop=2.4;fillColor=none;strokeOpacity=100;fillOpacity=100;" vertex="1" parent="mfR3fk1l9YsUzS0LlTWS-33">
          <mxGeometry y="NaN" width="240" as="geometry" />
        </mxCell>
        <mxCell id="mfR3fk1l9YsUzS0LlTWS-43" value="new client ID" style="part=1;resizeHeight=0;strokeColor=none;verticalAlign=top;overflow=hidden;rotatable=0;points=[[0,0.5],[1,0.5]];portConstraint=eastwest;html=1;whiteSpace=wrap;#ffffffwhiteSpace=wrap;fontSize=13.3;align=center;spacingLeft=8.4;spacingRight=8.4;spacingTop=2.4;fillColor=none;strokeOpacity=100;fillOpacity=100;" vertex="1" parent="mfR3fk1l9YsUzS0LlTWS-33">
          <mxGeometry y="NaN" width="240" as="geometry" />
        </mxCell>
        <mxCell id="mfR3fk1l9YsUzS0LlTWS-44" value="Projects" style="html=1;overflow=block;blockSpacing=1;swimlane;childLayout=stackLayout;horizontal=1;horizontalStack=0;resizeParent=1;resizeParentMax=0;resizeLast=0;collapsible=0;marginBottom=0;swimlaneFillColor=#ffffff;startSize=NaN;whiteSpace=wrap;fontSize=13.3;fontStyle=3;align=center;spacingLeft=8.4;spacingRight=8.4;spacingTop=2.4;spacing=0;strokeColor=#3a414a;strokeOpacity=100;fillOpacity=100;rounded=1;absoluteArcSize=1;arcSize=12;strokeWidth=0.8;fillColor=#d9d9d9;" vertex="1" parent="WIyWlLk6GJQsqaUBKTNV-1">
          <mxGeometry x="109" y="960" width="150" height="NaN" as="geometry" />
        </mxCell>
        <mxCell id="mfR3fk1l9YsUzS0LlTWS-45" value="Project_ID (PK)" style="part=1;resizeHeight=0;strokeColor=none;verticalAlign=top;overflow=hidden;rotatable=0;points=[[0,0.5],[1,0.5]];portConstraint=eastwest;html=1;whiteSpace=wrap;#ffffffwhiteSpace=wrap;fontSize=13.3;align=center;spacingLeft=8.4;spacingRight=8.4;spacingTop=2.4;fillColor=none;strokeOpacity=100;fillOpacity=100;" vertex="1" parent="mfR3fk1l9YsUzS0LlTWS-44">
          <mxGeometry y="NaN" width="150" as="geometry" />
        </mxCell>
        <mxCell id="mfR3fk1l9YsUzS0LlTWS-46" value="Project_Name String" style="part=1;resizeHeight=0;strokeColor=none;verticalAlign=top;overflow=hidden;rotatable=0;points=[[0,0.5],[1,0.5]];portConstraint=eastwest;html=1;whiteSpace=wrap;#ffffffwhiteSpace=wrap;fontSize=13.3;align=center;spacingLeft=8.4;spacingRight=8.4;spacingTop=2.4;fillColor=none;strokeOpacity=100;fillOpacity=100;" vertex="1" parent="mfR3fk1l9YsUzS0LlTWS-44">
          <mxGeometry y="NaN" width="150" as="geometry" />
        </mxCell>
        <mxCell id="mfR3fk1l9YsUzS0LlTWS-47" value="Requirements text" style="part=1;resizeHeight=0;strokeColor=none;verticalAlign=top;overflow=hidden;rotatable=0;points=[[0,0.5],[1,0.5]];portConstraint=eastwest;html=1;whiteSpace=wrap;#ffffffwhiteSpace=wrap;fontSize=13.3;align=center;spacingLeft=8.4;spacingRight=8.4;spacingTop=2.4;fillColor=none;strokeOpacity=100;fillOpacity=100;" vertex="1" parent="mfR3fk1l9YsUzS0LlTWS-44">
          <mxGeometry y="NaN" width="150" as="geometry" />
        </mxCell>
        <mxCell id="mfR3fk1l9YsUzS0LlTWS-48" value="deadline date" style="part=1;resizeHeight=0;strokeColor=none;verticalAlign=top;overflow=hidden;rotatable=0;points=[[0,0.5],[1,0.5]];portConstraint=eastwest;html=1;whiteSpace=wrap;#ffffffwhiteSpace=wrap;fontSize=13.3;align=center;spacingLeft=8.4;spacingRight=8.4;spacingTop=2.4;fillColor=none;strokeOpacity=100;fillOpacity=100;" vertex="1" parent="mfR3fk1l9YsUzS0LlTWS-44">
          <mxGeometry y="NaN" width="150" as="geometry" />
        </mxCell>
        <mxCell id="mfR3fk1l9YsUzS0LlTWS-49" value="Client_ID (FK)" style="part=1;resizeHeight=0;strokeColor=none;verticalAlign=top;overflow=hidden;rotatable=0;points=[[0,0.5],[1,0.5]];portConstraint=eastwest;html=1;whiteSpace=wrap;#ffffffwhiteSpace=wrap;fontSize=13.3;align=center;spacingLeft=8.4;spacingRight=8.4;spacingTop=2.4;fillColor=none;strokeOpacity=100;fillOpacity=100;" vertex="1" parent="mfR3fk1l9YsUzS0LlTWS-44">
          <mxGeometry y="NaN" width="150" as="geometry" />
        </mxCell>
        <mxCell id="mfR3fk1l9YsUzS0LlTWS-50" value="Clients" style="html=1;overflow=block;blockSpacing=1;swimlane;childLayout=stackLayout;horizontal=1;horizontalStack=0;resizeParent=1;resizeParentMax=0;resizeLast=0;collapsible=0;marginBottom=0;swimlaneFillColor=#ffffff;startSize=NaN;whiteSpace=wrap;fontSize=13.3;fontStyle=3;align=center;spacingLeft=8.4;spacingRight=8.4;spacingTop=2.4;spacing=0;strokeColor=#3a414a;strokeOpacity=100;fillOpacity=100;rounded=1;absoluteArcSize=1;arcSize=12;strokeWidth=0.8;fillColor=#d9d9d9;" vertex="1" parent="WIyWlLk6GJQsqaUBKTNV-1">
          <mxGeometry x="375" y="1170" width="150" height="NaN" as="geometry" />
        </mxCell>
        <mxCell id="mfR3fk1l9YsUzS0LlTWS-51" value="Client_ID (PK)" style="part=1;resizeHeight=0;strokeColor=none;verticalAlign=top;overflow=hidden;rotatable=0;points=[[0,0.5],[1,0.5]];portConstraint=eastwest;html=1;whiteSpace=wrap;#ffffffwhiteSpace=wrap;fontSize=13.3;align=center;spacingLeft=8.4;spacingRight=8.4;spacingTop=2.4;fillColor=none;strokeOpacity=100;fillOpacity=100;" vertex="1" parent="mfR3fk1l9YsUzS0LlTWS-50">
          <mxGeometry y="NaN" width="150" as="geometry" />
        </mxCell>
        <mxCell id="mfR3fk1l9YsUzS0LlTWS-52" value="Client_Name String" style="part=1;resizeHeight=0;strokeColor=none;verticalAlign=top;overflow=hidden;rotatable=0;points=[[0,0.5],[1,0.5]];portConstraint=eastwest;html=1;whiteSpace=wrap;#ffffffwhiteSpace=wrap;fontSize=13.3;align=center;spacingLeft=8.4;spacingRight=8.4;spacingTop=2.4;fillColor=none;strokeOpacity=100;fillOpacity=100;" vertex="1" parent="mfR3fk1l9YsUzS0LlTWS-50">
          <mxGeometry y="NaN" width="150" as="geometry" />
        </mxCell>
        <mxCell id="mfR3fk1l9YsUzS0LlTWS-53" value="Contact_Name String" style="part=1;resizeHeight=0;strokeColor=none;verticalAlign=top;overflow=hidden;rotatable=0;points=[[0,0.5],[1,0.5]];portConstraint=eastwest;html=1;whiteSpace=wrap;#ffffffwhiteSpace=wrap;fontSize=13.3;align=center;spacingLeft=8.4;spacingRight=8.4;spacingTop=2.4;fillColor=none;strokeOpacity=100;fillOpacity=100;" vertex="1" parent="mfR3fk1l9YsUzS0LlTWS-50">
          <mxGeometry y="NaN" width="150" as="geometry" />
        </mxCell>
        <mxCell id="mfR3fk1l9YsUzS0LlTWS-54" value="" style="html=1;jettySize=18;whiteSpace=wrap;fontSize=13;strokeColor=#3a414a;strokeOpacity=100;strokeWidth=0.8;rounded=1;arcSize=12;edgeStyle=orthogonalEdgeStyle;startArrow=ERone;startSize=16;endArrow=ERmany;endSize=10;exitX=-0.002;exitY=0.346;exitPerimeter=0;entryX=1.002;entryY=0.919;entryPerimeter=0;lucidId=HXJQTWXBSOZ1;" edge="1" parent="WIyWlLk6GJQsqaUBKTNV-1" source="mfR3fk1l9YsUzS0LlTWS-50" target="mfR3fk1l9YsUzS0LlTWS-44">
          <mxGeometry width="100" height="100" relative="1" as="geometry">
            <Array as="points" />
          </mxGeometry>
        </mxCell>
        <mxCell id="mfR3fk1l9YsUzS0LlTWS-55" value="Archived Projects" style="html=1;overflow=block;blockSpacing=1;swimlane;childLayout=stackLayout;horizontal=1;horizontalStack=0;resizeParent=1;resizeParentMax=0;resizeLast=0;collapsible=0;marginBottom=0;swimlaneFillColor=#ffffff;startSize=NaN;whiteSpace=wrap;fontSize=13.3;fontStyle=3;align=center;spacingLeft=8.4;spacingRight=8.4;spacingTop=2.4;spacing=0;strokeColor=#3a414a;strokeOpacity=100;fillOpacity=100;rounded=1;absoluteArcSize=1;arcSize=12;strokeWidth=0.8;fillColor=#d9d9d9;" vertex="1" parent="WIyWlLk6GJQsqaUBKTNV-1">
          <mxGeometry x="675" y="960" width="150" height="NaN" as="geometry" />
        </mxCell>
        <mxCell id="mfR3fk1l9YsUzS0LlTWS-56" value="Project_ID (PK)" style="part=1;resizeHeight=0;strokeColor=none;verticalAlign=top;overflow=hidden;rotatable=0;points=[[0,0.5],[1,0.5]];portConstraint=eastwest;html=1;whiteSpace=wrap;#ffffffwhiteSpace=wrap;fontSize=13.3;align=center;spacingLeft=8.4;spacingRight=8.4;spacingTop=2.4;fillColor=none;strokeOpacity=100;fillOpacity=100;" vertex="1" parent="mfR3fk1l9YsUzS0LlTWS-55">
          <mxGeometry y="NaN" width="150" as="geometry" />
        </mxCell>
        <mxCell id="mfR3fk1l9YsUzS0LlTWS-57" value="Project_Name String" style="part=1;resizeHeight=0;strokeColor=none;verticalAlign=top;overflow=hidden;rotatable=0;points=[[0,0.5],[1,0.5]];portConstraint=eastwest;html=1;whiteSpace=wrap;#ffffffwhiteSpace=wrap;fontSize=13.3;align=center;spacingLeft=8.4;spacingRight=8.4;spacingTop=2.4;fillColor=none;strokeOpacity=100;fillOpacity=100;" vertex="1" parent="mfR3fk1l9YsUzS0LlTWS-55">
          <mxGeometry y="NaN" width="150" as="geometry" />
        </mxCell>
        <mxCell id="mfR3fk1l9YsUzS0LlTWS-58" value="Requirements text" style="part=1;resizeHeight=0;strokeColor=none;verticalAlign=top;overflow=hidden;rotatable=0;points=[[0,0.5],[1,0.5]];portConstraint=eastwest;html=1;whiteSpace=wrap;#ffffffwhiteSpace=wrap;fontSize=13.3;align=center;spacingLeft=8.4;spacingRight=8.4;spacingTop=2.4;fillColor=none;strokeOpacity=100;fillOpacity=100;" vertex="1" parent="mfR3fk1l9YsUzS0LlTWS-55">
          <mxGeometry y="NaN" width="150" as="geometry" />
        </mxCell>
        <mxCell id="mfR3fk1l9YsUzS0LlTWS-59" value="deadline date" style="part=1;resizeHeight=0;strokeColor=none;verticalAlign=top;overflow=hidden;rotatable=0;points=[[0,0.5],[1,0.5]];portConstraint=eastwest;html=1;whiteSpace=wrap;#ffffffwhiteSpace=wrap;fontSize=13.3;align=center;spacingLeft=8.4;spacingRight=8.4;spacingTop=2.4;fillColor=none;strokeOpacity=100;fillOpacity=100;" vertex="1" parent="mfR3fk1l9YsUzS0LlTWS-55">
          <mxGeometry y="NaN" width="150" as="geometry" />
        </mxCell>
        <mxCell id="mfR3fk1l9YsUzS0LlTWS-60" value="Client_ID (FK)" style="part=1;resizeHeight=0;strokeColor=none;verticalAlign=top;overflow=hidden;rotatable=0;points=[[0,0.5],[1,0.5]];portConstraint=eastwest;html=1;whiteSpace=wrap;#ffffffwhiteSpace=wrap;fontSize=13.3;align=center;spacingLeft=8.4;spacingRight=8.4;spacingTop=2.4;fillColor=none;strokeOpacity=100;fillOpacity=100;" vertex="1" parent="mfR3fk1l9YsUzS0LlTWS-55">
          <mxGeometry y="NaN" width="150" as="geometry" />
        </mxCell>
        <mxCell id="mfR3fk1l9YsUzS0LlTWS-61" value="Employees" style="html=1;overflow=block;blockSpacing=1;swimlane;childLayout=stackLayout;horizontal=1;horizontalStack=0;resizeParent=1;resizeParentMax=0;resizeLast=0;collapsible=0;marginBottom=0;swimlaneFillColor=#ffffff;startSize=NaN;whiteSpace=wrap;fontSize=13.3;fontStyle=3;align=center;spacingLeft=8.4;spacingRight=8.4;spacingTop=2.4;spacing=0;strokeColor=#3a414a;strokeOpacity=100;fillOpacity=100;rounded=1;absoluteArcSize=1;arcSize=12;strokeWidth=0.8;fillColor=#d9d9d9;" vertex="1" parent="WIyWlLk6GJQsqaUBKTNV-1">
          <mxGeometry x="120" y="1335" width="150" height="NaN" as="geometry" />
        </mxCell>
        <mxCell id="mfR3fk1l9YsUzS0LlTWS-62" value="employee_id (PK)" style="part=1;resizeHeight=0;strokeColor=none;verticalAlign=top;overflow=hidden;rotatable=0;points=[[0,0.5],[1,0.5]];portConstraint=eastwest;html=1;whiteSpace=wrap;#ffffffwhiteSpace=wrap;fontSize=13.3;align=center;spacingLeft=8.4;spacingRight=8.4;spacingTop=2.4;fillColor=none;strokeOpacity=100;fillOpacity=100;" vertex="1" parent="mfR3fk1l9YsUzS0LlTWS-61">
          <mxGeometry y="NaN" width="150" as="geometry" />
        </mxCell>
        <mxCell id="mfR3fk1l9YsUzS0LlTWS-63" value="employee_name String" style="part=1;resizeHeight=0;strokeColor=none;verticalAlign=top;overflow=hidden;rotatable=0;points=[[0,0.5],[1,0.5]];portConstraint=eastwest;html=1;whiteSpace=wrap;#ffffffwhiteSpace=wrap;fontSize=13.3;align=center;spacingLeft=8.4;spacingRight=8.4;spacingTop=2.4;fillColor=none;strokeOpacity=100;fillOpacity=100;" vertex="1" parent="mfR3fk1l9YsUzS0LlTWS-61">
          <mxGeometry y="NaN" width="150" as="geometry" />
        </mxCell>
        <mxCell id="mfR3fk1l9YsUzS0LlTWS-64" value="Team_members" style="html=1;overflow=block;blockSpacing=1;swimlane;childLayout=stackLayout;horizontal=1;horizontalStack=0;resizeParent=1;resizeParentMax=0;resizeLast=0;collapsible=0;marginBottom=0;swimlaneFillColor=#ffffff;startSize=NaN;whiteSpace=wrap;fontSize=13.3;fontStyle=3;align=center;spacingLeft=8.4;spacingRight=8.4;spacingTop=2.4;spacing=0;strokeColor=#3a414a;strokeOpacity=100;fillOpacity=100;rounded=1;absoluteArcSize=1;arcSize=12;strokeWidth=0.8;fillColor=#d9d9d9;" vertex="1" parent="WIyWlLk6GJQsqaUBKTNV-1">
          <mxGeometry x="-390" y="1155" width="150" height="NaN" as="geometry" />
        </mxCell>
        <mxCell id="mfR3fk1l9YsUzS0LlTWS-65" value="team_id (PK)" style="part=1;resizeHeight=0;strokeColor=none;verticalAlign=top;overflow=hidden;rotatable=0;points=[[0,0.5],[1,0.5]];portConstraint=eastwest;html=1;whiteSpace=wrap;#ffffffwhiteSpace=wrap;fontSize=13.3;align=center;spacingLeft=8.4;spacingRight=8.4;spacingTop=2.4;fillColor=none;strokeOpacity=100;fillOpacity=100;" vertex="1" parent="mfR3fk1l9YsUzS0LlTWS-64">
          <mxGeometry y="NaN" width="150" as="geometry" />
        </mxCell>
        <mxCell id="mfR3fk1l9YsUzS0LlTWS-66" value="Project _ID (FK)" style="part=1;resizeHeight=0;strokeColor=none;verticalAlign=top;overflow=hidden;rotatable=0;points=[[0,0.5],[1,0.5]];portConstraint=eastwest;html=1;whiteSpace=wrap;#ffffffwhiteSpace=wrap;fontSize=13.3;align=center;spacingLeft=8.4;spacingRight=8.4;spacingTop=2.4;fillColor=none;strokeOpacity=100;fillOpacity=100;" vertex="1" parent="mfR3fk1l9YsUzS0LlTWS-64">
          <mxGeometry y="NaN" width="150" as="geometry" />
        </mxCell>
        <mxCell id="mfR3fk1l9YsUzS0LlTWS-67" value="employee_Id(FK)" style="part=1;resizeHeight=0;strokeColor=none;verticalAlign=top;overflow=hidden;rotatable=0;points=[[0,0.5],[1,0.5]];portConstraint=eastwest;html=1;whiteSpace=wrap;#ffffffwhiteSpace=wrap;fontSize=13.3;align=center;spacingLeft=8.4;spacingRight=8.4;spacingTop=2.4;fillColor=none;strokeOpacity=100;fillOpacity=100;" vertex="1" parent="mfR3fk1l9YsUzS0LlTWS-64">
          <mxGeometry y="NaN" width="150" as="geometry" />
        </mxCell>
        <mxCell id="mfR3fk1l9YsUzS0LlTWS-68" value="" style="html=1;jettySize=18;whiteSpace=wrap;fontSize=13;strokeColor=#3a414a;strokeOpacity=100;strokeWidth=0.8;rounded=1;arcSize=12;edgeStyle=orthogonalEdgeStyle;startArrow=ERone;startSize=16;endArrow=ERmany;endSize=10;exitX=1.002;exitY=0.638;exitPerimeter=0;entryX=-0.002;entryY=0.267;entryPerimeter=0;lucidId=n3JQQGuNli3l;" edge="1" parent="WIyWlLk6GJQsqaUBKTNV-1" source="mfR3fk1l9YsUzS0LlTWS-64" target="mfR3fk1l9YsUzS0LlTWS-44">
          <mxGeometry width="100" height="100" relative="1" as="geometry">
            <Array as="points" />
          </mxGeometry>
        </mxCell>
        <mxCell id="mfR3fk1l9YsUzS0LlTWS-69" value="" style="html=1;jettySize=18;whiteSpace=wrap;fontSize=13;strokeColor=#3a414a;strokeOpacity=100;strokeWidth=0.8;rounded=1;arcSize=12;edgeStyle=orthogonalEdgeStyle;startArrow=ERone;startSize=16;endArrow=ERmany;endSize=10;exitX=1.002;exitY=0.879;exitPerimeter=0;entryX=-0.002;entryY=0.439;entryPerimeter=0;lucidId=s3JQXHloKjPH;" edge="1" parent="WIyWlLk6GJQsqaUBKTNV-1" source="mfR3fk1l9YsUzS0LlTWS-64" target="mfR3fk1l9YsUzS0LlTWS-61">
          <mxGeometry width="100" height="100" relative="1" as="geometry">
            <Array as="points" />
          </mxGeometry>
        </mxCell>
        <mxCell id="mfR3fk1l9YsUzS0LlTWS-70" value="" style="html=1;jettySize=18;whiteSpace=wrap;fontSize=13;strokeColor=#3a414a;strokeOpacity=100;strokeWidth=0.8;rounded=1;arcSize=12;edgeStyle=orthogonalEdgeStyle;startArrow=ERone;startSize=16;endArrow=ERmany;endSize=10;exitX=-0.002;exitY=0.919;exitPerimeter=0;entryX=1.002;entryY=0.346;entryPerimeter=0;lucidId=-3JQY85L~Fqe;" edge="1" parent="WIyWlLk6GJQsqaUBKTNV-1" source="mfR3fk1l9YsUzS0LlTWS-55" target="mfR3fk1l9YsUzS0LlTWS-50">
          <mxGeometry width="100" height="100" relative="1" as="geometry">
            <Array as="points" />
          </mxGeometry>
        </mxCell>
        <mxCell id="mfR3fk1l9YsUzS0LlTWS-71" value="Audit Project" style="html=1;overflow=block;blockSpacing=1;swimlane;childLayout=stackLayout;horizontal=1;horizontalStack=0;resizeParent=1;resizeParentMax=0;resizeLast=0;collapsible=0;marginBottom=0;swimlaneFillColor=#ffffff;startSize=NaN;whiteSpace=wrap;fontSize=13.3;fontStyle=3;align=center;spacingLeft=8.4;spacingRight=8.4;spacingTop=2.4;spacing=0;strokeColor=#3a414a;strokeOpacity=100;fillOpacity=100;rounded=1;absoluteArcSize=1;arcSize=12;strokeWidth=0.8;fillColor=#d9d9d9;" vertex="1" parent="WIyWlLk6GJQsqaUBKTNV-1">
          <mxGeometry x="405" y="1470" width="240" height="NaN" as="geometry" />
        </mxCell>
        <mxCell id="mfR3fk1l9YsUzS0LlTWS-72" value="Audit_Id (PK)" style="part=1;resizeHeight=0;strokeColor=none;verticalAlign=top;overflow=hidden;rotatable=0;points=[[0,0.5],[1,0.5]];portConstraint=eastwest;html=1;whiteSpace=wrap;#ffffffwhiteSpace=wrap;fontSize=13.3;align=center;spacingLeft=8.4;spacingRight=8.4;spacingTop=2.4;fillColor=none;strokeOpacity=100;fillOpacity=100;" vertex="1" parent="mfR3fk1l9YsUzS0LlTWS-71">
          <mxGeometry y="NaN" width="240" as="geometry" />
        </mxCell>
        <mxCell id="mfR3fk1l9YsUzS0LlTWS-73" value="Project_ID INT" style="part=1;resizeHeight=0;strokeColor=none;verticalAlign=top;overflow=hidden;rotatable=0;points=[[0,0.5],[1,0.5]];portConstraint=eastwest;html=1;whiteSpace=wrap;#ffffffwhiteSpace=wrap;fontSize=13.3;align=center;spacingLeft=8.4;spacingRight=8.4;spacingTop=2.4;fillColor=none;strokeOpacity=100;fillOpacity=100;" vertex="1" parent="mfR3fk1l9YsUzS0LlTWS-71">
          <mxGeometry y="NaN" width="240" as="geometry" />
        </mxCell>
        <mxCell id="mfR3fk1l9YsUzS0LlTWS-74" value="Old Project Name" style="part=1;resizeHeight=0;strokeColor=none;verticalAlign=top;overflow=hidden;rotatable=0;points=[[0,0.5],[1,0.5]];portConstraint=eastwest;html=1;whiteSpace=wrap;#ffffffwhiteSpace=wrap;fontSize=13.3;align=center;spacingLeft=8.4;spacingRight=8.4;spacingTop=2.4;fillColor=none;strokeOpacity=100;fillOpacity=100;" vertex="1" parent="mfR3fk1l9YsUzS0LlTWS-71">
          <mxGeometry y="NaN" width="240" as="geometry" />
        </mxCell>
        <mxCell id="mfR3fk1l9YsUzS0LlTWS-75" value="new project Name" style="part=1;resizeHeight=0;strokeColor=none;verticalAlign=top;overflow=hidden;rotatable=0;points=[[0,0.5],[1,0.5]];portConstraint=eastwest;html=1;whiteSpace=wrap;#ffffffwhiteSpace=wrap;fontSize=13.3;align=center;spacingLeft=8.4;spacingRight=8.4;spacingTop=2.4;fillColor=none;strokeOpacity=100;fillOpacity=100;" vertex="1" parent="mfR3fk1l9YsUzS0LlTWS-71">
          <mxGeometry y="NaN" width="240" as="geometry" />
        </mxCell>
        <mxCell id="mfR3fk1l9YsUzS0LlTWS-76" value="old requirements" style="part=1;resizeHeight=0;strokeColor=none;verticalAlign=top;overflow=hidden;rotatable=0;points=[[0,0.5],[1,0.5]];portConstraint=eastwest;html=1;whiteSpace=wrap;#ffffffwhiteSpace=wrap;fontSize=13.3;align=center;spacingLeft=8.4;spacingRight=8.4;spacingTop=2.4;fillColor=none;strokeOpacity=100;fillOpacity=100;" vertex="1" parent="mfR3fk1l9YsUzS0LlTWS-71">
          <mxGeometry y="NaN" width="240" as="geometry" />
        </mxCell>
        <mxCell id="mfR3fk1l9YsUzS0LlTWS-77" value="new requirements" style="part=1;resizeHeight=0;strokeColor=none;verticalAlign=top;overflow=hidden;rotatable=0;points=[[0,0.5],[1,0.5]];portConstraint=eastwest;html=1;whiteSpace=wrap;#ffffffwhiteSpace=wrap;fontSize=13.3;align=center;spacingLeft=8.4;spacingRight=8.4;spacingTop=2.4;fillColor=none;strokeOpacity=100;fillOpacity=100;" vertex="1" parent="mfR3fk1l9YsUzS0LlTWS-71">
          <mxGeometry y="NaN" width="240" as="geometry" />
        </mxCell>
        <mxCell id="mfR3fk1l9YsUzS0LlTWS-78" value="old deadline" style="part=1;resizeHeight=0;strokeColor=none;verticalAlign=top;overflow=hidden;rotatable=0;points=[[0,0.5],[1,0.5]];portConstraint=eastwest;html=1;whiteSpace=wrap;#ffffffwhiteSpace=wrap;fontSize=13.3;align=center;spacingLeft=8.4;spacingRight=8.4;spacingTop=2.4;fillColor=none;strokeOpacity=100;fillOpacity=100;" vertex="1" parent="mfR3fk1l9YsUzS0LlTWS-71">
          <mxGeometry y="NaN" width="240" as="geometry" />
        </mxCell>
        <mxCell id="mfR3fk1l9YsUzS0LlTWS-79" value="new deadline" style="part=1;resizeHeight=0;strokeColor=none;verticalAlign=top;overflow=hidden;rotatable=0;points=[[0,0.5],[1,0.5]];portConstraint=eastwest;html=1;whiteSpace=wrap;#ffffffwhiteSpace=wrap;fontSize=13.3;align=center;spacingLeft=8.4;spacingRight=8.4;spacingTop=2.4;fillColor=none;strokeOpacity=100;fillOpacity=100;" vertex="1" parent="mfR3fk1l9YsUzS0LlTWS-71">
          <mxGeometry y="NaN" width="240" as="geometry" />
        </mxCell>
        <mxCell id="mfR3fk1l9YsUzS0LlTWS-80" value="old client ID" style="part=1;resizeHeight=0;strokeColor=none;verticalAlign=top;overflow=hidden;rotatable=0;points=[[0,0.5],[1,0.5]];portConstraint=eastwest;html=1;whiteSpace=wrap;#ffffffwhiteSpace=wrap;fontSize=13.3;align=center;spacingLeft=8.4;spacingRight=8.4;spacingTop=2.4;fillColor=none;strokeOpacity=100;fillOpacity=100;" vertex="1" parent="mfR3fk1l9YsUzS0LlTWS-71">
          <mxGeometry y="NaN" width="240" as="geometry" />
        </mxCell>
        <mxCell id="mfR3fk1l9YsUzS0LlTWS-81" value="new client ID" style="part=1;resizeHeight=0;strokeColor=none;verticalAlign=top;overflow=hidden;rotatable=0;points=[[0,0.5],[1,0.5]];portConstraint=eastwest;html=1;whiteSpace=wrap;#ffffffwhiteSpace=wrap;fontSize=13.3;align=center;spacingLeft=8.4;spacingRight=8.4;spacingTop=2.4;fillColor=none;strokeOpacity=100;fillOpacity=100;" vertex="1" parent="mfR3fk1l9YsUzS0LlTWS-71">
          <mxGeometry y="NaN" width="240" as="geometry" />
        </mxCell>
        <mxCell id="mfR3fk1l9YsUzS0LlTWS-82" value="" style="rounded=1;whiteSpace=wrap;html=1;fillColor=#dae8fc;strokeColor=#6c8ebf;" vertex="1" parent="WIyWlLk6GJQsqaUBKTNV-1">
          <mxGeometry x="920" y="360" width="300" height="240" as="geometry" />
        </mxCell>
        <mxCell id="mfR3fk1l9YsUzS0LlTWS-83" value="Projects" style="text;html=1;align=center;verticalAlign=middle;whiteSpace=wrap;rounded=0;fontStyle=1;fontSize=16;" vertex="1" parent="WIyWlLk6GJQsqaUBKTNV-1">
          <mxGeometry x="1015" y="375" width="110" height="30" as="geometry" />
        </mxCell>
        <mxCell id="mfR3fk1l9YsUzS0LlTWS-87" value="&lt;font style=&quot;font-size: 14px;&quot;&gt;Project_ID Primary Key&lt;/font&gt;" style="text;html=1;align=center;verticalAlign=middle;whiteSpace=wrap;rounded=0;" vertex="1" parent="WIyWlLk6GJQsqaUBKTNV-1">
          <mxGeometry x="981" y="414" width="180" height="30" as="geometry" />
        </mxCell>
        <mxCell id="mfR3fk1l9YsUzS0LlTWS-88" value="&lt;font style=&quot;font-size: 14px;&quot;&gt;Project Name VARCHAR(255)&lt;/font&gt;" style="text;html=1;align=center;verticalAlign=middle;whiteSpace=wrap;rounded=0;" vertex="1" parent="WIyWlLk6GJQsqaUBKTNV-1">
          <mxGeometry x="966" y="446" width="210" height="30" as="geometry" />
        </mxCell>
        <mxCell id="mfR3fk1l9YsUzS0LlTWS-89" value="&lt;font style=&quot;font-size: 14px;&quot;&gt;Requirements Text&lt;/font&gt;" style="text;html=1;align=center;verticalAlign=middle;whiteSpace=wrap;rounded=0;" vertex="1" parent="WIyWlLk6GJQsqaUBKTNV-1">
          <mxGeometry x="966" y="480" width="210" height="30" as="geometry" />
        </mxCell>
        <mxCell id="mfR3fk1l9YsUzS0LlTWS-90" value="&lt;font style=&quot;font-size: 14px;&quot;&gt;Deadline Date&lt;/font&gt;" style="text;html=1;align=center;verticalAlign=middle;whiteSpace=wrap;rounded=0;" vertex="1" parent="WIyWlLk6GJQsqaUBKTNV-1">
          <mxGeometry x="966" y="515" width="210" height="30" as="geometry" />
        </mxCell>
        <mxCell id="mfR3fk1l9YsUzS0LlTWS-92" value="&lt;font style=&quot;font-size: 14px;&quot;&gt;Client_ID Foreign Key&lt;/font&gt;" style="text;html=1;align=center;verticalAlign=middle;whiteSpace=wrap;rounded=0;" vertex="1" parent="WIyWlLk6GJQsqaUBKTNV-1">
          <mxGeometry x="966" y="545" width="210" height="30" as="geometry" />
        </mxCell>
      </root>
    </mxGraphModel>
  </diagram>
</mxfile>
